<?xml version="1.0" standalone="no"?>
<!DOCTYPE svg PUBLIC "-//W3C//DTD SVG 20010904//EN"
 "http://www.w3.org/TR/2001/REC-SVG-20010904/DTD/svg10.dtd">
<svg version="1.0" xmlns="http://www.w3.org/2000/svg"
 width="298.000000pt" height="298.000000pt" viewBox="0 0 298.000000 298.000000"
 preserveAspectRatio="xMidYMid meet">
<metadata>
Created by potrace 1.11, written by Peter Selinger 2001-2013
</metadata>
<g transform="translate(0.000000,298.000000) scale(0.100000,-0.100000)"
fill="#000000" stroke="none">
<path d="M1205 2659 c-99 -3 -192 -9 -207 -13 -35 -11 -108 -82 -134 -131 -40
-75 -66 -120 -80 -135 -7 -9 -20 -31 -29 -50 -9 -19 -29 -56 -45 -82 -16 -26
-44 -73 -61 -105 -18 -32 -42 -74 -54 -93 -40 -64 -38 -74 19 -104 73 -39 161
-89 177 -101 8 -6 28 -17 44 -25 17 -8 37 -19 45 -26 8 -6 40 -24 70 -40 30
-15 69 -38 86 -51 40 -30 94 -42 94 -21 0 9 45 93 100 187 55 95 100 176 100
181 0 6 4 10 8 10 4 0 15 15 23 33 9 17 26 51 39 74 27 48 20 53 75 -54 15
-29 33 -57 41 -63 9 -8 10 -17 4 -28 -5 -10 -11 -24 -13 -33 -3 -9 -30 -30
-60 -47 -44 -25 -57 -38 -62 -63 -5 -22 -3 -34 6 -40 8 -5 155 -8 328 -6 l315
2 64 110 c36 61 90 155 121 210 32 55 70 119 85 143 37 58 34 115 -6 120 -16
2 -43 -7 -67 -22 -22 -14 -47 -26 -56 -26 -8 0 -15 -4 -15 -9 0 -5 -7 -12 -16
-15 -20 -8 -34 9 -74 86 -33 64 -122 158 -148 158 -10 0 -23 5 -30 12 -6 6
-25 11 -42 10 -23 0 -30 4 -30 18 0 10 -5 22 -11 26 -14 9 -376 11 -604 3z"/>
<path d="M2356 1882 c-11 -2 -37 -15 -58 -28 -21 -13 -40 -24 -43 -24 -4 0
-69 -39 -130 -78 -11 -6 -27 -15 -35 -19 -8 -4 -17 -9 -20 -13 -3 -3 -21 -14
-40 -23 -40 -20 -73 -39 -80 -48 -3 -3 -21 -11 -40 -19 -19 -7 -43 -20 -52
-28 -21 -18 -23 -60 -4 -87 15 -22 143 -244 235 -408 9 -16 21 -38 28 -50 12
-22 12 -22 -89 -25 -131 -4 -138 2 -138 108 0 62 -4 80 -18 93 -36 33 -57 22
-102 -55 -24 -40 -51 -85 -61 -100 -11 -15 -19 -29 -19 -31 0 -4 -38 -72 -146
-260 -41 -70 -42 -104 -9 -157 14 -22 25 -42 25 -45 0 -2 15 -28 33 -57 18
-29 41 -69 51 -88 17 -32 31 -58 94 -166 67 -116 70 -119 98 -122 42 -4 53 22
55 127 l1 91 162 0 c89 0 166 4 172 9 5 5 18 11 29 13 27 4 101 93 135 163 25
50 103 180 113 186 5 4 6 13 1 20 -6 10 -3 10 11 -1 10 -8 16 -10 12 -3 -4 6
-3 14 2 18 6 3 8 12 4 20 -3 9 1 23 8 32 10 12 10 15 2 9 -19 -11 -16 9 4 25
11 10 14 10 9 1 -4 -6 -5 -12 -1 -12 3 0 10 12 15 26 6 14 14 22 20 19 5 -3
10 3 10 14 0 11 16 45 34 74 90 141 101 178 54 190 -19 5 -20 10 -13 54 4 26
6 62 5 78 -2 17 -3 44 -4 62 -1 17 -4 29 -9 26 -4 -2 -10 4 -14 14 -4 10 -9
20 -12 23 -3 3 -15 23 -26 45 -11 22 -22 42 -25 45 -3 3 -12 19 -20 35 -8 17
-27 49 -42 71 -16 23 -28 45 -28 49 0 4 -8 19 -19 33 -10 15 -33 54 -51 87
-46 84 -52 91 -74 87z"/>
<path d="M280 1723 c-98 -5 -120 -11 -120 -36 0 -21 57 -77 79 -77 5 0 14 -6
18 -14 4 -7 18 -18 31 -25 25 -13 21 -33 -6 -25 -14 5 -14 4 -2 -4 12 -9 11
-17 -9 -54 -13 -24 -38 -63 -55 -88 -45 -64 -59 -119 -50 -198 6 -63 40 -148
71 -180 7 -7 13 -20 13 -28 0 -12 32 -66 50 -84 3 -3 12 -18 20 -35 8 -16 25
-47 39 -67 15 -24 22 -47 19 -63 -4 -20 -2 -23 8 -14 10 8 16 3 29 -20 8 -17
16 -34 16 -38 0 -5 5 -13 11 -20 5 -7 6 -18 2 -24 -4 -7 -3 -9 4 -5 12 7 41
-31 82 -107 30 -56 58 -72 67 -38 5 18 10 15 52 -28 75 -77 96 -81 433 -81
l288 0 7 28 c4 15 7 155 7 311 0 255 -2 285 -17 296 -13 9 -92 12 -317 11
-165 0 -300 2 -300 5 0 4 15 29 33 55 19 27 44 71 58 98 27 55 46 67 65 42 6
-10 16 -17 21 -17 19 0 60 -14 88 -31 64 -39 84 -10 45 67 -22 43 -25 59 -10
50 6 -3 7 1 4 9 -3 9 -10 14 -15 13 -5 -1 -17 11 -27 28 -9 16 -23 35 -29 43
-7 7 -13 20 -13 28 0 8 -4 14 -9 14 -5 0 -13 10 -17 23 -4 12 -23 47 -42 77
-56 87 -71 128 -61 162 7 25 6 28 -6 18 -10 -9 -19 -8 -38 4 -19 13 -63 17
-243 19 -120 1 -244 1 -274 0z m297 -1045 c-3 -8 -6 -5 -6 6 -1 11 2 17 5 13
3 -3 4 -12 1 -19z"/>
<path d="M227 1506 c-3 -8 0 -17 7 -19 10 -4 12 1 9 14 -6 23 -9 24 -16 5z"/>
</g>
</svg>
